<svg xmlns="http://www.w3.org/2000/svg" width="156" height="48" fill="none"><path fill="#171717" d="M12.78 26.191c0-2.606-1.96-4.438-4.368-4.438-2.408 0-4.368 1.863-4.368 4.438 0 2.545 1.96 4.439 4.368 4.439 2.41-.003 4.369-1.832 4.369-4.439Zm.035 7.758v-2.017c-1.188 1.397-2.956 2.264-5.074 2.264C3.34 34.196 0 30.782 0 26.19c0-4.562 3.468-8.035 7.84-8.035 2.056 0 3.79.87 4.978 2.233v-1.956h3.95V33.95h-3.953Zm23.141-3.445c-1.382 0-1.766-.497-1.766-1.8v-6.887h2.538v-3.384H34.19V14.65h-4.049v3.784h-5.214v-.943c0-1.304.514-1.8 1.928-1.8h.888V12.68h-1.948c-3.34 0-4.915 1.055-4.915 4.281v1.471h-2.248v3.383h2.248v12.132h4.05V21.815h5.214v7.603c0 3.165 1.252 4.53 4.528 4.53h2.089v-3.444h-.805Zm14.52-5.71c-.288-2.017-1.992-3.227-3.982-3.227-1.993 0-3.63 1.179-4.046 3.227h8.028Zm-8.063 2.421c.29 2.295 1.993 3.6 4.145 3.6 1.702 0 3.02-.777 3.79-2.018h4.145c-.964 3.289-4.017 5.399-8.031 5.399-4.85 0-8.255-3.289-8.255-7.974 0-4.686 3.599-8.069 8.353-8.069 4.787 0 8.255 3.414 8.255 8.069 0 .342-.032.682-.096.993H42.413Zm38.143-1.024c0-2.514-1.96-4.438-4.368-4.438-2.408 0-4.369 1.863-4.369 4.438 0 2.545 1.96 4.439 4.369 4.439 2.408-.003 4.368-1.925 4.368-4.439Zm-12.721-7.758h3.95v2.018c1.188-1.428 2.954-2.296 5.074-2.296 4.337 0 7.741 3.446 7.741 8.005 0 4.562-3.468 8.038-7.837 8.038-2.024 0-3.694-.777-4.85-2.079v8.214h-4.078v-21.9Zm31.005 7.758c0-2.606-1.959-4.438-4.37-4.438-2.407 0-4.368 1.863-4.368 4.438 0 2.545 1.96 4.439 4.369 4.439 2.41-.003 4.368-1.832 4.368-4.439Zm.034 7.758v-2.017c-1.188 1.397-2.957 2.264-5.075 2.264-4.4 0-7.74-3.414-7.74-8.005 0-4.562 3.468-8.035 7.836-8.035 2.056 0 3.79.87 4.979 2.233v-1.956h3.951V33.95h-3.951Zm-38.16-13.995s1.006-1.799 3.468-1.799c1.052 0 1.734.35 1.734.35v3.958s-1.486-.886-2.851-.708c-1.365.178-2.228 1.39-2.224 3.01v9.186h-4.078V18.436h3.95v1.518Zm60.56-1.521-9.974 21.85h-4.206l3.916-8.447-6.621-13.402h4.767l3.874 8.955 3.975-8.956h4.269Zm31.84-.351-9.888-5.513c-2.903-1.618-6.531.404-6.531 3.643v.565c0 .511.282.984.74 1.238l1.867 1.041c.548.306 1.232-.076 1.232-.687v-1.406c0-.704.788-1.143 1.417-.791l8.565 4.775a.897.897 0 0 1 0 1.58l-8.565 4.776c-.629.352-1.417-.088-1.417-.791v-.749c0-3.238-3.628-5.262-6.532-3.642l-9.888 5.512a4.135 4.135 0 0 0 0 7.285l9.888 5.513c2.902 1.617 6.532-.404 6.532-3.643v-.565c0-.511-.282-.982-.74-1.238l-1.867-1.043c-.548-.307-1.232.076-1.232.686v1.407c0 .703-.787 1.143-1.417.791l-8.565-4.776a.9.9 0 0 1 0-1.582l8.565-4.776c.63-.352 1.417.088 1.417.791v.749c0 3.238 3.628 5.263 6.531 3.642l9.888-5.512a4.132 4.132 0 0 0 0-7.28Z"/></svg>